<?xml version="1.0" standalone="no"?>
<!DOCTYPE svg PUBLIC "-//W3C//DTD SVG 20010904//EN"
 "http://www.w3.org/TR/2001/REC-SVG-20010904/DTD/svg10.dtd">
<svg version="1.0" xmlns="http://www.w3.org/2000/svg"
 width="1024.000000pt" height="1024.000000pt" viewBox="0 0 1024.000000 1024.000000"
 preserveAspectRatio="xMidYMid meet">
<metadata>
Created by potrace 1.14, written by Peter Selinger 2001-2017
</metadata>
<g transform="translate(0.000000,1024.000000) scale(0.100000,-0.100000)"
fill="#000000" stroke="none">
<path d="M5080 10118 c-12 -29 -55 -134 -97 -233 -194 -470 -275 -656 -393
-905 -152 -323 -407 -815 -560 -1080 -20 -36 -50 -87 -65 -115 -92 -165 -118
-207 -129 -210 -6 -2 -101 -6 -211 -9 -110 -3 -218 -8 -240 -11 -134 -16 -198
-25 -217 -31 -10 -3 -29 -7 -43 -10 -113 -20 -284 -95 -345 -151 -80 -72 -190
-356 -239 -618 -28 -149 -29 -156 -30 -188 -1 -36 19 -40 -321 59 -85 25 -189
56 -230 69 -339 106 -351 108 -364 63 -10 -39 -7 -1336 3 -1343 9 -5 174 -37
261 -51 19 -3 89 -16 155 -30 66 -13 136 -26 155 -28 19 -3 74 -14 123 -24 48
-11 90 -21 92 -21 3 -1 14 -1 25 -1 29 0 25 -16 -24 -121 -24 -52 -61 -134
-81 -184 -20 -49 -42 -103 -50 -120 -7 -16 -35 -95 -63 -175 -135 -391 -202
-666 -257 -1065 -19 -136 -26 -468 -13 -625 38 -455 202 -971 435 -1365 87
-147 236 -361 300 -430 10 -11 33 -38 52 -60 43 -51 163 -175 232 -240 469
-441 1095 -731 1754 -815 250 -32 588 -32 816 0 41 6 92 13 114 16 188 26 459
98 665 177 715 274 1346 865 1691 1582 138 287 250 656 284 935 4 30 8 57 10
60 18 30 27 537 13 695 -43 463 -197 1025 -421 1533 -33 76 -38 97 -29 110 7
10 22 37 34 62 12 25 29 56 38 70 16 26 46 114 65 197 3 10 9 36 14 58 32 132
44 345 28 490 -25 230 -159 388 -505 599 -91 56 -422 226 -439 226 -5 0 -28
10 -53 23 -25 13 -105 47 -177 76 l-131 52 -47 77 c-315 508 -648 1102 -891
1588 -240 479 -391 817 -589 1322 -38 94 -72 172 -75 172 -4 0 -17 -24 -30
-52z"/>
</g>
</svg>
